<?xml version="1.0" encoding="UTF-8" standalone="no"?>
<svg id="a" data-name="Layer 1" width="359.07071" height="55.999168" viewBox="0 0 1796.7011 280.206"
    version="1.1" xmlns="http://www.w3.org/2000/svg">
  <g
     id="g10"
     transform="translate(-27.21,-39.897)">
    <polygon
       points="93.647,263.882 238.959,263.882 238.959,320.103 27.21,320.103 27.21,39.897 230.063,39.897 230.063,129.006 173.421,129.006 173.421,96.118 93.647,96.118 "
       fill="#009c82"
       id="polygon2" />
    <polygon
       points="265.302,39.906 361.953,39.906 417.812,199.794 473.268,39.906 548.155,39.906 548.155,320.094 482.055,320.094 484.046,183.799 445.817,285.875 390.325,285.875 351.625,183.594 353.623,320.094 287.523,320.094 287.523,96.12 265.302,96.12 "
       fill="#f03b3b"
       id="polygon4" />
    <polygon
       points="995.249,96.126 968.799,96.126 968.799,320.092 902.82,320.092 902.82,96.126 876.37,96.126 876.37,129.437 818.827,129.437 818.827,39.906 1052.79,39.906 1052.79,129.437 995.249,129.437 "
       fill="#11a4e6"
       id="polygon6" />
    <path
       d="M 793.366,162.565 V 320.094 H 583.394 V 39.906 h 66 v 0.018 c 0.531,-0.018 1.1,-0.018 1.651,-0.018 h 132.543 v 56.2 H 649.393 v 167.786 h 78.873 V 217.879 H 685.6 v -55.314 z"
       fill="#62c744"
       id="path8" />
  </g>
  <g
     id="g26"
     transform="translate(-27.21,-39.897)">
    <path
       d="m 1152.896,191.441 -31.283,128.651 h -48.098 l -51.617,-143.511 -26.649,0.0261 v -34.802 l 57.541,-0.0261 42.233,132.953 30.892,-129.042 h 53.572 l 31.283,129.042 42.233,-132.953 h 41.841 l -62.566,178.313 h -48.098 l -31.283,-128.651 z"
       fill="#ad00ff"
       id="path14" />
    <path
       d="M 1311.153,320.092 V 176.581 h -49.457 v -34.802 h 91.688 v 143.9 h 19.553 v 34.412 h -61.783 z m 45.36,-242.444 c 0,15.642 -12.122,27.764 -27.373,27.764 -15.642,0 -27.764,-12.122 -27.764,-27.764 0,-15.25 12.122,-27.372 27.764,-27.372 15.251,0 27.373,12.122 27.373,27.372 z"
       fill="#ad00ff"
       id="path16" />
    <path
       d="m 1476.597,320.092 h -77.426 V 176.581 h -23.463 v -34.802 h 23.463 V 87.033 h 41.841 v 54.746 h 35.193 v 34.802 h -35.193 v 109.098 h 35.585 v 34.412 z"
       fill="#ad00ff"
       id="path18" />
    <path
       d="M 1634.966,320.092 H 1503.969 V 141.779 h 131.389 v 59.828 h -36.367 v -25.026 h -53.18 V 285.29 h 89.156 v 34.802 z"
       fill="#ad00ff"
       id="path20" />
    <path
       d="M 1762.518,320.092 V 176.581 h -56.309 v 143.511 h -41.841 V 82.732 h -23.463 V 47.929 h 65.304 v 93.85 h 98.151 V 285.29 h 19.551 v 34.802 h -61.392 z"
       fill="#ad00ff"
       id="path22" />
  </g>
</svg>
